<svg xmlns="http://www.w3.org/2000/svg" viewBox="0 0 200 200">
  <defs>
    <linearGradient id="favGrad1" x1="0%" y1="0%" x2="100%" y2="100%">
      <stop offset="0%" style="stop-color:#8b5cf6"/>
      <stop offset="100%" style="stop-color:#ec4899"/>
    </linearGradient>
    <linearGradient id="favGrad2" x1="0%" y1="0%" x2="100%" y2="0%">
      <stop offset="0%" style="stop-color:#3b82f6"/>
      <stop offset="100%" style="stop-color:#8b5cf6"/>
    </linearGradient>
    <clipPath id="circleClip">
      <circle cx="100" cy="100" r="100"/>
    </clipPath>
  </defs>
  
  <circle cx="100" cy="100" r="100" fill="#0a0a0a"/>
  <circle cx="100" cy="100" r="90" fill="none" stroke="url(#favGrad1)" stroke-width="3" opacity="0.4"/>
  
  <g clip-path="url(#circleClip)">
    <!-- Top layer -->
    <rect x="65" y="50" width="70" height="24" rx="6" fill="url(#favGrad1)" opacity="0.9"/>
    <rect x="72" y="56" width="15" height="3" rx="1.5" fill="white" opacity="0.7"/>
    <rect x="90" y="56" width="20" height="3" rx="1.5" fill="white" opacity="0.7"/>
    <rect x="114" y="56" width="10" height="3" rx="1.5" fill="white" opacity="0.7"/>
    <rect x="72" y="63" width="20" height="3" rx="1.5" fill="white" opacity="0.5"/>
    <rect x="95" y="63" width="15" height="3" rx="1.5" fill="white" opacity="0.5"/>
    
    <!-- Middle layer -->
    <rect x="60" y="84" width="80" height="28" rx="6" fill="url(#favGrad2)" opacity="0.85"/>
    <rect x="68" y="91" width="18" height="3" rx="1.5" fill="white" opacity="0.7"/>
    <rect x="89" y="91" width="25" height="3" rx="1.5" fill="white" opacity="0.7"/>
    <rect x="118" y="91" width="12" height="3" rx="1.5" fill="white" opacity="0.7"/>
    <rect x="68" y="99" width="25" height="3" rx="1.5" fill="white" opacity="0.5"/>
    <rect x="96" y="99" width="18" height="3" rx="1.5" fill="white" opacity="0.5"/>
    
    <!-- Bottom layer -->
    <rect x="55" y="122" width="90" height="32" rx="6" fill="url(#favGrad1)" opacity="0.75"/>
    <rect x="64" y="130" width="20" height="3" rx="1.5" fill="white" opacity="0.7"/>
    <rect x="87" y="130" width="28" height="3" rx="1.5" fill="white" opacity="0.7"/>
    <rect x="119" y="130" width="15" height="3" rx="1.5" fill="white" opacity="0.7"/>
    <rect x="64" y="138" width="28" height="3" rx="1.5" fill="white" opacity="0.5"/>
    <rect x="95" y="138" width="20" height="3" rx="1.5" fill="white" opacity="0.5"/>
    <rect x="119" y="138" width="10" height="3" rx="1.5" fill="white" opacity="0.5"/>
    
    <!-- Decorative brackets -->
    <path d="M 35 85 L 30 85 L 25 100 L 30 115 L 35 115" 
          stroke="url(#favGrad1)" stroke-width="3" stroke-linecap="round" stroke-linejoin="round" fill="none" opacity="0.3"/>
    <path d="M 165 85 L 170 85 L 175 100 L 170 115 L 165 115" 
          stroke="url(#favGrad2)" stroke-width="3" stroke-linecap="round" stroke-linejoin="round" fill="none" opacity="0.3"/>
  </g>
  
  <!-- Accent dots -->
  <circle cx="100" cy="40" r="3" fill="url(#favGrad1)" opacity="0.6"/>
  <circle cx="100" cy="160" r="3" fill="url(#favGrad2)" opacity="0.6"/>
</svg>
